<svg width="993" height="151" viewBox="0 0 993 151" fill="none" xmlns="http://www.w3.org/2000/svg">
<path d="M342.412 73.0909L353.797 110.378H354.219L365.604 73.0909H379.376L362.199 124H345.817L328.641 73.0909H342.412ZM397.162 73.0909V124H384.857V73.0909H397.162ZM404.886 124V73.0909H425.916C429.728 73.0909 433.017 73.7786 435.785 75.1541C438.569 76.513 440.715 78.4685 442.223 81.0206C443.731 83.5561 444.485 86.5639 444.485 90.044C444.485 93.5739 443.714 96.5734 442.173 99.0426C440.632 101.495 438.444 103.368 435.611 104.661C432.777 105.937 429.421 106.575 425.543 106.575H412.244V96.88H423.256C425.112 96.88 426.662 96.6397 427.905 96.1591C429.164 95.6619 430.117 94.9162 430.763 93.9219C431.41 92.911 431.733 91.6184 431.733 90.044C431.733 88.4697 431.41 87.1688 430.763 86.1413C430.117 85.0973 429.164 84.3184 427.905 83.8047C426.645 83.2744 425.096 83.0092 423.256 83.0092H417.191V124H404.886ZM433.547 100.733L446.225 124H432.802L420.373 100.733H433.547ZM449.568 83.0838V73.0909H492.597V83.0838H477.161V124H465.03V83.0838H449.568ZM529.406 73.0909H541.686V105.928C541.686 109.723 540.783 113.029 538.976 115.847C537.17 118.647 534.651 120.818 531.419 122.359C528.188 123.884 524.434 124.646 520.159 124.646C515.833 124.646 512.055 123.884 508.824 122.359C505.592 120.818 503.081 118.647 501.292 115.847C499.502 113.029 498.607 109.723 498.607 105.928V73.0909H510.912V104.859C510.912 106.616 511.293 108.182 512.055 109.558C512.834 110.933 513.919 112.01 515.311 112.789C516.703 113.568 518.319 113.957 520.159 113.957C521.998 113.957 523.606 113.568 524.981 112.789C526.373 112.01 527.459 110.933 528.238 109.558C529.016 108.182 529.406 106.616 529.406 104.859V73.0909ZM560.41 124H547.186L564.362 73.0909H580.744L597.921 124H584.696L572.74 85.9176H572.342L560.41 124ZM558.645 103.964H586.287V113.311H558.645V103.964ZM603.402 124V73.0909H615.706V114.007H636.885V124H603.402ZM658.294 124V73.0909H679.324C683.136 73.0909 686.425 73.7786 689.193 75.1541C691.977 76.513 694.123 78.4685 695.631 81.0206C697.139 83.5561 697.893 86.5639 697.893 90.044C697.893 93.5739 697.123 96.5734 695.581 99.0426C694.04 101.495 691.853 103.368 689.019 104.661C686.185 105.937 682.829 106.575 678.951 106.575H665.652V96.88H676.664C678.52 96.88 680.07 96.6397 681.313 96.1591C682.572 95.6619 683.525 94.9162 684.172 93.9219C684.818 92.911 685.141 91.6184 685.141 90.044C685.141 88.4697 684.818 87.1688 684.172 86.1413C683.525 85.0973 682.572 84.3184 681.313 83.8047C680.053 83.2744 678.504 83.0092 676.664 83.0092H670.599V124H658.294ZM686.956 100.733L699.633 124H686.21L673.781 100.733H686.956ZM752.692 98.5455C752.692 104.147 751.615 108.895 749.461 112.789C747.307 116.683 744.39 119.642 740.711 121.663C737.049 123.685 732.939 124.696 728.381 124.696C723.808 124.696 719.689 123.677 716.027 121.638C712.365 119.6 709.456 116.642 707.302 112.764C705.164 108.87 704.095 104.13 704.095 98.5455C704.095 92.9441 705.164 88.1963 707.302 84.3018C709.456 80.4074 712.365 77.4493 716.027 75.4276C719.689 73.4058 723.808 72.3949 728.381 72.3949C732.939 72.3949 737.049 73.4058 740.711 75.4276C744.39 77.4493 747.307 80.4074 749.461 84.3018C751.615 88.1963 752.692 92.9441 752.692 98.5455ZM740.114 98.5455C740.114 95.2311 739.642 92.4304 738.697 90.1435C737.769 87.8565 736.427 86.1248 734.67 84.9482C732.93 83.7715 730.834 83.1832 728.381 83.1832C725.945 83.1832 723.849 83.7715 722.092 84.9482C720.336 86.1248 718.985 87.8565 718.04 90.1435C717.112 92.4304 716.648 95.2311 716.648 98.5455C716.648 101.86 717.112 104.661 718.04 106.947C718.985 109.234 720.336 110.966 722.092 112.143C723.849 113.319 725.945 113.908 728.381 113.908C730.834 113.908 732.93 113.319 734.67 112.143C736.427 110.966 737.769 109.234 738.697 106.947C739.642 104.661 740.114 101.86 740.114 98.5455ZM807.927 98.5455C807.927 104.147 806.85 108.895 804.695 112.789C802.541 116.683 799.624 119.642 795.945 121.663C792.283 123.685 788.173 124.696 783.616 124.696C779.042 124.696 774.924 123.677 771.261 121.638C767.599 119.6 764.691 116.642 762.536 112.764C760.398 108.87 759.33 104.13 759.33 98.5455C759.33 92.9441 760.398 88.1963 762.536 84.3018C764.691 80.4074 767.599 77.4493 771.261 75.4276C774.924 73.4058 779.042 72.3949 783.616 72.3949C788.173 72.3949 792.283 73.4058 795.945 75.4276C799.624 77.4493 802.541 80.4074 804.695 84.3018C806.85 88.1963 807.927 92.9441 807.927 98.5455ZM795.349 98.5455C795.349 95.2311 794.876 92.4304 793.932 90.1435C793.004 87.8565 791.661 86.1248 789.905 84.9482C788.165 83.7715 786.068 83.1832 783.616 83.1832C781.18 83.1832 779.083 83.7715 777.327 84.9482C775.57 86.1248 774.219 87.8565 773.275 90.1435C772.347 92.4304 771.883 95.2311 771.883 98.5455C771.883 101.86 772.347 104.661 773.275 106.947C774.219 109.234 775.57 110.966 777.327 112.143C779.083 113.319 781.18 113.908 783.616 113.908C786.068 113.908 788.165 113.319 789.905 112.143C791.661 110.966 793.004 109.234 793.932 106.947C794.876 104.661 795.349 101.86 795.349 98.5455ZM815.111 73.0909H830.349L843.275 104.611H843.871L856.798 73.0909H872.036V124H860.054V92.7287H859.631L847.401 123.677H839.745L827.515 92.5547H827.092V124H815.111V73.0909Z" fill="#6496D1"/>
<path d="M0 48.5187L26.8618 53.0801L53.7236 57.6415L76.0826 63.1944L87.8832 67.5575L99.3732 72.7139L109 77.0769L117.695 81.8366L135.085 93.7359L154.339 110.395L162.103 119.518L169.245 132.21L152.786 119.518L140.365 110.395L132.291 103.652L119.558 96.5124L109 91.3561L99.3732 86.1997L88.5043 81.8366L82.9145 79.0601L76.0826 77.0769L66.4558 74.3004L55.8974 72.7139L43.1652 70.334L24.5328 67.5575L7.14245 65.1777L0 48.5187Z" fill="#6496D1"/>
<path d="M55.4341 15.1145L68.1663 21.0641L90.678 33.0496L115.521 47.0677L132.767 60.1513L146.488 73.686L161.679 92.6346L167.804 103.011L173.44 117.448L142.849 85.4064L109.932 63.5911L86.3304 52.4851L76.0826 49.7747L61.0238 47.0677H55.4341V15.1145Z" fill="#6496D1"/>
<path d="M100.305 0.128296L108.48 5.93957L123.285 15.994L139.188 31.3384L149.961 44.1177L158.771 57.3377L168.525 75.8456L172.458 85.9809L175.766 103.255L154.649 70.334L134.775 50.8985L120.49 39.3959L113.969 35.0328L107.137 31.3384L100.305 29.0832V0.128296Z" fill="#6496D1"/>
<path d="M7.45312 65.0936H14.5019L22.0486 90.1661L34.7808 136.177L19.8748 98.4956L7.45312 65.0936Z" fill="#6496D1"/>
<path d="M316.131 29.4798L327 19.1671L313.957 58.4347L294.704 112.378L307.125 65.9709L316.131 29.4798Z" fill="#6496D1"/>
<path d="M160.55 137.99L176.077 142.353L192.536 143.94L207.131 141.56L219.63 132.607L216.447 139.577L209.305 145.526L194.709 150.286L178.561 147.906L160.55 137.99Z" fill="#6496D1"/>
<path d="M277.624 0.128296H289.425L297.499 0.524938L302.157 1.71487L317.063 5.28465L326.689 11.2343L286.319 42.9657L270.171 56.0549L257.439 65.5743L248.744 77.8702L239.117 91.7527L234.459 98.8923L231.043 107.222L227.627 123.087L213.342 128.244L193.157 131.02V108.015L197.194 85.4064L206.51 61.6079L212.41 50.5019L220.174 39.7925L231.974 27.1L244.396 16.7873L258.991 8.06114L277.624 0.128296Z" fill="#6496D1"/>
<path d="M256.507 50.1053L262.097 45.3456L268.618 39.7926L281.35 29.4799L300.604 18.3739L281.35 32.2564L268.308 42.9657L262.407 47.7254L256.197 53.6751L249.365 61.6079L243.464 68.7475L233.217 84.2165L216.758 118.328L220.484 106.825L225.142 95.3225L228.558 88.183L231.974 82.2333L235.701 75.8871L239.738 69.9374L248.433 59.2281L256.507 50.1053Z" fill="white"/>
<path d="M232.285 40.5859L237.875 35.8262L244.396 30.2732L257.128 19.9605L286.319 3.69812L257.128 22.737L244.086 33.4463L238.185 38.206L231.975 44.1556L225.143 52.0885L219.242 59.2281L212.41 67.9542L208.994 74.6971L206.2 82.63L204.026 93.736L199.368 113.171L200.61 100.876L202.473 92.1494L204.957 81.0434L207.752 72.7139L211.479 66.3676L215.516 60.418L224.211 49.7086L232.285 40.5859Z" fill="white"/>
<path d="M235.506 44.6495L240.762 39.9796L246.895 34.5314L258.868 24.4133L289.114 6.87122L258.868 27.1374L246.603 37.6447L241.054 42.3146L235.214 48.152L228.789 55.9351L223.24 62.94L215.516 74.6971L213.032 82.2333L208.995 93.3393L203.715 116.741L204.957 102.462L208.373 89.7695L210.237 83.0266L212.1 77.0769L215.94 69.9449L219.736 64.1075L227.913 53.6002L235.506 44.6495Z" fill="white"/>
<path d="M241.811 45.9577L246.993 41.3237L253.04 35.9174L264.844 25.8771L291.909 10.0443L264.844 28.5802L252.752 39.0067L247.281 43.6407L241.523 49.4332L235.189 57.1565L229.718 64.1074L220.217 79.1679L208.373 116.741L210.857 101.272L213.652 91.7527L216.758 83.4232L219.065 77.237L222.52 71.0584L226.263 65.2659L234.325 54.8395L241.811 45.9577Z" fill="white"/>
<path d="M246.473 49.5113L251.558 44.9306L257.492 39.5864L269.076 29.6615L295.635 14.0107L269.076 32.3336L257.209 42.6402L251.841 47.2209L246.19 52.9468L239.974 60.5814L234.606 67.4524L225.282 82.3398L212.41 116.344L215.114 104.974L219.02 93.2116L221.424 86.9382L224.152 80.4311L227.542 74.3235L231.215 68.5976L239.126 58.291L246.473 49.5113Z" fill="white"/>
</svg>
